<svg width="248" height="248" viewBox="0 0 248 248" fill="none" xmlns="http://www.w3.org/2000/svg">
<path d="M247.3 0.659912H0.620117V247.34H247.3V0.659912Z" fill="#395781"/>
<path d="M197.13 28.8501H50.8V38.5101H197.13V28.8501Z" fill="white"/>
<path d="M197.13 209.49H50.8V219.15H197.13V209.49Z" fill="white"/>
<path d="M148.8 144.79C148.8 160.24 138.91 169.51 123.83 169.51H99.1101V83H122.59C136.56 83 145.58 92.02 145.58 106.48C145.58 114.88 142.12 121.68 136.81 125.02C144.23 128.11 148.8 135.4 148.8 144.8V144.79ZM111.6 94.73V119.57H121.49C129.03 119.57 132.86 115.24 132.86 106.84C132.86 98.44 129.15 94.73 121.12 94.73H111.6ZM136.07 144.79C136.07 135.89 130.51 131.32 121.73 131.32H111.6V157.77H122.23C131.38 157.77 136.07 153.57 136.07 144.79Z" fill="white"/>
</svg>
